<svg width="600" height="500" viewBox="0 0 600 500" fill="none" xmlns="http://www.w3.org/2000/svg">
  <!-- Background shape -->
  <rect x="50" y="80" width="500" height="340" rx="20" fill="#f8f9fa" />
  
  <!-- Dashboard outline -->
  <rect x="80" y="110" width="440" height="280" rx="10" fill="white" stroke="#e9ecef" stroke-width="2" />
  
  <!-- Sidebar -->
  <rect x="80" y="110" width="100" height="280" fill="#5469d4" />
  
  <!-- Sidebar icons -->
  <circle cx="130" cy="150" r="15" fill="white" opacity="0.3" />
  <circle cx="130" cy="200" r="15" fill="white" opacity="0.3" />
  <circle cx="130" cy="250" r="15" fill="white" opacity="0.3" />
  <circle cx="130" cy="300" r="15" fill="white" opacity="0.3" />
  <circle cx="130" cy="350" r="15" fill="white" opacity="0.3" />
  
  <!-- Main content area -->
  <!-- Header -->
  <rect x="200" y="130" width="300" height="40" rx="5" fill="#f1f3f5" />
  
  <!-- Stats cards -->
  <rect x="200" y="190" width="140" height="80" rx="8" fill="#e7f5ff" stroke="#4dabf7" stroke-width="1" />
  <rect x="360" y="190" width="140" height="80" rx="8" fill="#fff4e6" stroke="#ffa94d" stroke-width="1" />
  
  <!-- Chart area -->
  <rect x="200" y="290" width="300" height="80" rx="8" fill="#f8f9fa" stroke="#e9ecef" stroke-width="1" />
  
  <!-- Chart bars -->
  <rect x="220" y="330" width="20" height="30" fill="#5469d4" rx="3" />
  <rect x="260" y="310" width="20" height="50" fill="#5469d4" rx="3" />
  <rect x="300" y="320" width="20" height="40" fill="#5469d4" rx="3" />
  <rect x="340" y="300" width="20" height="60" fill="#5469d4" rx="3" />
  <rect x="380" y="340" width="20" height="20" fill="#5469d4" rx="3" />
  <rect x="420" y="315" width="20" height="45" fill="#5469d4" rx="3" />
  <rect x="460" y="325" width="20" height="35" fill="#5469d4" rx="3" />
  
  <!-- Coins/Money icons -->
  <circle cx="230" cy="230" r="20" fill="#4c6ef5" opacity="0.8" />
  <circle cx="230" cy="230" r="15" fill="#4c6ef5" stroke="white" stroke-width="2" />
  <circle cx="390" cy="230" r="20" fill="#ff922b" opacity="0.8" />
  <circle cx="390" cy="230" r="15" fill="#ff922b" stroke="white" stroke-width="2" />
  
  <!-- Decorative elements -->
  <circle cx="530" cy="100" r="40" fill="#5469d4" opacity="0.1" />
  <circle cx="70" cy="400" r="30" fill="#5469d4" opacity="0.1" />
  <circle cx="520" cy="380" r="25" fill="#5469d4" opacity="0.1" />
</svg> 