<svg width="1440" height="800" viewBox="0 0 1440 800" fill="none" xmlns="http://www.w3.org/2000/svg">
  <!-- Soft curves and wave patterns -->
  <path d="M0 150C150 100 300 180 450 150C600 120 750 60 900 80C1050 100 1200 180 1350 200C1500 220 1650 180 1800 150L1800 800L0 800L0 150Z" 
        fill="url(#paint0_linear)" opacity="0.15"/>
  
  <path d="M0 400C150 350 300 430 450 400C600 370 750 310 900 330C1050 350 1200 430 1350 450C1500 470 1650 430 1800 400L1800 800L0 800L0 400Z" 
        fill="url(#paint1_linear)" opacity="0.1"/>
  
  <!-- Dotted pattern -->
  <g opacity="0.07">
    <circle cx="100" cy="100" r="8" fill="white"/>
    <circle cx="300" cy="150" r="10" fill="white"/>
    <circle cx="500" cy="80" r="6" fill="white"/>
    <circle cx="700" cy="200" r="12" fill="white"/>
    <circle cx="900" cy="120" r="8" fill="white"/>
    <circle cx="1100" cy="180" r="9" fill="white"/>
    <circle cx="1300" cy="90" r="7" fill="white"/>
    
    <circle cx="200" cy="250" r="8" fill="white"/>
    <circle cx="400" cy="300" r="10" fill="white"/>
    <circle cx="600" cy="220" r="6" fill="white"/>
    <circle cx="800" cy="340" r="12" fill="white"/>
    <circle cx="1000" cy="280" r="8" fill="white"/>
    <circle cx="1200" cy="320" r="9" fill="white"/>
    <circle cx="1400" cy="250" r="7" fill="white"/>
  </g>
  
  <!-- Abstract lines -->
  <path d="M0 0L1440 0" stroke="white" stroke-width="0.5" stroke-dasharray="10 15" opacity="0.1"/>
  <path d="M0 100L1440 100" stroke="white" stroke-width="0.5" stroke-dasharray="10 15" opacity="0.1"/>
  <path d="M0 200L1440 200" stroke="white" stroke-width="0.5" stroke-dasharray="10 15" opacity="0.1"/>
  <path d="M0 300L1440 300" stroke="white" stroke-width="0.5" stroke-dasharray="10 15" opacity="0.1"/>
  <path d="M0 400L1440 400" stroke="white" stroke-width="0.5" stroke-dasharray="10 15" opacity="0.1"/>
  
  <!-- Gradient definitions -->
  <defs>
    <linearGradient id="paint0_linear" x1="0" y1="150" x2="1800" y2="800" gradientUnits="userSpaceOnUse">
      <stop stop-color="white"/>
      <stop offset="1" stop-color="white" stop-opacity="0"/>
    </linearGradient>
    <linearGradient id="paint1_linear" x1="0" y1="400" x2="1800" y2="800" gradientUnits="userSpaceOnUse">
      <stop stop-color="white"/>
      <stop offset="1" stop-color="white" stop-opacity="0"/>
    </linearGradient>
  </defs>
</svg> 